:FULLY-SPECIFIED
:FORCE-ALL-JOINTS-BE-3DOF
:DEGREES
917
root 2.70887 16.085 32.4593 0 0 0
lfemur -6.73765 3.08939 -0.991381
ltibia 0 0 0
lfoot -9.40754 -33.8029 -0.629531
ltoes 0 0 0
rfemur 0 0 0
rtibia 49.7464 -0 0
rfoot 0 0 0
rtoes 0 0 0
lowerback -1.29095 -0.880361 -2.83804
upperback 0 0 0
thorax 0 0 0
lowerneck 0 0 0
upperneck 4.01098 -4.92611 5.63774
head 2.68759 -2.27205 1.65524
lclavicle 0 0 0
lhumerus -52.9945 -38.1017 107.46
lradius 0 0 0
lwrist 16.7623 0 0
lhand 40.1253 24.5487 0.267449
lfingers 0 0 0
lthumb 0 0 0
rclavicle 0 0 0
rhumerus 0 0 0
rradius 0 0 0
rwrist -6.75611 0 0
rhand 0 0 0
rfingers 0 0 0
rthumb 0 0 0
918
root 2.62912 16.0593 32.502 0 0 0
lfemur -5.51701 1.18477 -0.125681
ltibia 0 0 0
lfoot -8.9476 -36.3799 -0.539041
ltoes 0 0 0
rfemur 0 0 0
rtibia 47.734 -0 0
rfoot 0 0 0
rtoes 0 0 0
lowerback -1.69167 -0.797508 -2.80158
upperback 0 0 0
thorax 0 0 0
lowerneck 0 0 0
upperneck 3.9829 -4.60035 5.68425
head 2.66465 -2.10716 1.66581
lclavicle 0 0 0
lhumerus -53.1043 -38.1699 107.257
lradius 0 0 0
lwrist 17.0489 0 0
lhand 40.9487 25.1623 0.2293
lfingers 0 0 0
lthumb 0 0 0
rclavicle 0 0 0
rhumerus 0 0 0
rradius 0 0 0
rwrist -6.52963 0 0
rhand 0 0 0
rfingers 0 0 0
rthumb 0 0 0
919
root 2.55055 16.0334 32.5426 0 0 0
lfemur -4.41817 -0.58582 0.635714
ltibia 0 0 0
lfoot -8.52783 -38.7535 -0.437443
ltoes 0 0 0
rfemur 0 0 0
rtibia 45.8798 -0 0
rfoot 0 0 0
rtoes 0 0 0
lowerback -2.06082 -0.720948 -2.7685
upperback 0 0 0
thorax 0 0 0
lowerneck 0 0 0
upperneck 3.95727 -4.30018 5.72695
head 2.64355 -1.95524 1.67549
lclavicle 0 0 0
lhumerus -53.2053 -38.2329 107.07
lradius 0 0 0
lwrist 17.3129 0 0
lhand 41.707 25.7271 0.186351
lfingers 0 0 0
lthumb 0 0 0
rclavicle 0 0 0
rhumerus 0 0 0
rradius 0 0 0
rwrist -6.32097 0 0
rhand 0 0 0
rfingers 0 0 0
rthumb 0 0 0
920
root 2.47371 16.0075 32.581 0 0 0
lfemur -3.45263 -2.18491 1.28967
ltibia 0 0 0
lfoot -8.15544 -40.8803 -0.331673
ltoes 0 0 0
rfemur 0 0 0
rtibia 44.2178 -0 0
rfoot 0 0 0
rtoes 0 0 0
lowerback -2.39167 -0.652144 -2.73927
upperback 0 0 0
thorax 0 0 0
lowerneck 0 0 0
upperneck 3.93449 -4.03112 5.76509
head 2.62466 -1.81906 1.68413
lclavicle 0 0 0
lhumerus -53.2956 -38.2896 106.902
lradius 0 0 0
lwrist 17.5496 0 0
lhand 42.3862 26.2329 0.141507
lfingers 0 0 0
lthumb 0 0 0
rclavicle 0 0 0
rhumerus 0 0 0
rradius 0 0 0
rwrist -6.13394 0 0
rhand 0 0 0
rfingers 0 0 0
rthumb 0 0 0
921
root 2.39917 15.9816 32.6171 0 0 0
lfemur -2.63215 -3.57507 1.83359
ltibia 0 0 0
lfoot -7.83707 -42.7172 -0.22922
ltoes 0 0 0
rfemur 0 0 0
rtibia 42.782 -0 0
rfoot 0 0 0
rtoes 0 0 0
lowerback -2.67747 -0.592566 -2.71433
upperback 0 0 0
thorax 0 0 0
lowerneck 0 0 0
upperneck 3.91497 -3.79865 5.79794
head 2.60835 -1.7014 1.69155
lclavicle 0 0 0
lhumerus -53.3735 -38.3388 106.757
lradius 0 0 0
lwrist 17.754 0 0
lhand 42.9727 26.6694 0.0979396
lfingers 0 0 0
lthumb 0 0 0
rclavicle 0 0 0
rhumerus 0 0 0
rradius 0 0 0
rwrist -5.97236 0 0
rhand 0 0 0
rfingers 0 0 0
rthumb 0 0 0
922
root 2.32748 15.9557 32.6505 0 0 0
lfemur -1.96907 -4.71913 2.2648
ltibia 0 0 0
lfoot -7.57891 -44.221 -0.137757
ltoes 0 0 0
rfemur 0 0 0
rtibia 41.6062 -0 0
rfoot 0 0 0
rtoes 0 0 0
lowerback -2.91148 -0.543686 -2.69413
upperback 0 0 0
thorax 0 0 0
lowerneck 0 0 0
upperneck 3.89908 -3.60828 5.82478
head 2.59501 -1.60506 1.6976
lclavicle 0 0 0
lhumerus -53.4373 -38.3791 106.638
lradius 0 0 0
lwrist 17.9215 0 0
lhand 43.4528 27.0264 0.0589374
lfingers 0 0 0
lthumb 0 0 0
rclavicle 0 0 0
rhumerus 0 0 0
rradius 0 0 0
rwrist -5.84003 0 0
rhand 0 0 0
rfingers 0 0 0
rthumb 0 0 0
923
root 2.2592 15.9301 32.6813 0 0 0
lfemur -1.47667 -5.58039 2.57996
ltibia 0 0 0
lfoot -7.38691 -45.3485 -0.0647317
ltoes 0 0 0
rfemur 0 0 0
rtibia 40.7243 -0 0
rfoot 0 0 0
rtoes 0 0 0
lowerback -3.08699 -0.506972 -2.67912
upperback 0 0 0
thorax 0 0 0
lowerneck 0 0 0
upperneck 3.88723 -3.46549 5.84487
head 2.58502 -1.5328 1.70212
lclavicle 0 0 0
lhumerus -53.485 -38.4095 106.549
lradius 0 0 0
lwrist 18.047 0 0
lhand 43.8126 27.294 0.0277237
lfingers 0 0 0
lthumb 0 0 0
rclavicle 0 0 0
rhumerus 0 0 0
rradius 0 0 0
rwrist -5.74079 0 0
rhand 0 0 0
rfingers 0 0 0
rthumb 0 0 0
924
root 2.1949 15.9047 32.709 0 0 0
lfemur -1.1694 -6.1228 2.77438
ltibia 0 0 0
lfoot -7.26705 -46.0567 -0.0169299
ltoes 0 0 0
rfemur 0 0 0
rtibia 40.1703 -0 0
rfoot 0 0 0
rtoes 0 0 0
lowerback -3.19723 -0.483884 -2.66974
upperback 0 0 0
thorax 0 0 0
lowerneck 0 0 0
upperneck 3.87981 -3.37579 5.85748
head 2.57874 -1.4874 1.70496
lclavicle 0 0 0
lhumerus -53.515 -38.4286 106.493
lradius 0 0 0
lwrist 18.1259 0 0
lhand 44.0386 27.462 0.00725587
lfingers 0 0 0
lthumb 0 0 0
rclavicle 0 0 0
rhumerus 0 0 0
rradius 0 0 0
rwrist -5.67845 0 0
rhand 0 0 0
rfingers 0 0 0
rthumb 0 0 0
925
root 2.13513 15.8796 32.7337 4.39544 3.84042 4.759
lfemur -1.06315 -6.31122 2.8412
ltibia 7.52681 0 0
lfoot -7.2256 -46.3024 0
ltoes 13.1266 0 0
rfemur -21.1112 -2.49084 -10.9972
rtibia 39.9781 0 0
rfoot 0.283837 -7.68699 0
rtoes -46.4005 0 0
lowerback -3.23548 -0.47587 -2.6665
upperback -1.41089 -0.503662 -7.21775
thorax 0.318308 -0.259537 -6.011
lowerneck -7.03814 -2.23507 0.230682
upperneck 3.87724 -3.34467 5.86185
head 2.57656 -1.47165 1.70594
lclavicle -1.85118e-15 0 0
lhumerus -53.5254 -38.4352 106.474
lradius 57.8015 0 0
lwrist 18.1533 0 0
lhand 44.117 27.5203 0
lfingers 7.12502 0 0
lthumb 65.7072 33.474 0
rclavicle -1.85118e-15 0 0
rhumerus -55.8381 46.9807 -74.5842
rradius 114.708 0 0
rwrist -5.65682 0 0
rhand 22.8247 -10.4969 0
rfingers 7.12502 0 0
rthumb 47.1569 -33.094 0
926
root 2.0781 15.8542 32.755 4.46696 3.65728 4.7679
lfemur -0.850314 -6.11614 2.85363
ltibia 0 0 0
lfoot 0 0 0
ltoes 0 0 0
rfemur 0 0 0
rtibia 40.2185 -0 0
rfoot 0 0 0
rtoes -46.2988 0 0
lowerback -3.21052 -0.472423 -2.57365
upperback -1.41438 -0.504265 -7.21192
thorax 0 0 0
lowerneck 0 0 0
upperneck 3.80271 -3.24837 5.79366
head 2.54647 -1.42682 1.668
lclavicle 0 0 0
lhumerus 0 0 0
lradius 57.7409 -0 0
lwrist 18.3513 0 0
lhand 44.0163 27.4389 0.0024679
lfingers 0 0 0
lthumb 65.6265 33.5178 -0.00106445
rclavicle 0 0 0
rhumerus -51.7892 46.1879 -70.3324
rradius 0 0 0
rwrist -5.96535 0 0
rhand 21.1143 -11.5113 0.603036
rfingers 0 0 0
rthumb 45.5452 -34.2956 0.677701
927
root 2.02171 15.8278 32.7728 4.55896 3.42149 4.77902
lfemur -0.576367 -5.86508 2.87069
ltibia 0 0 0
lfoot 0 0 0
ltoes 0 0 0
rfemur 0 0 0
rtibia 40.5279 -0 0
rfoot 0 0 0
rtoes -46.168 0 0
lowerback -3.17839 -0.468044 -2.45412
upperback -1.41886 -0.50504 -7.20442
thorax 0 0 0
lowerneck 0 0 0
upperneck 3.7066 -3.12452 5.70571
head 2.5077 -1.36914 1.61911
lclavicle 0 0 0
lhumerus 0 0 0
lradius 57.6629 -0 0
lwrist 18.6063 0 0
lhand 43.8868 27.334 0.00543431
lfingers 0 0 0
lthumb 65.5227 33.5743 -0.0023439
rclavicle 0 0 0
rhumerus -46.8133 44.8739 -65.0932
rradius 0 0 0
rwrist -6.36253 0 0
rhand 18.8968 -12.8432 1.33414
rfingers 0 0 0
rthumb 43.4496 -35.8701 1.49966
928
root 1.96603 15.8005 32.7875 4.66894 3.13936 4.79181
lfemur -0.248668 -5.56481 2.89269
ltibia 0 0 0
lfoot 0 0 0
ltoes 0 0 0
rfemur 0 0 0
rtibia 40.8981 -0 0
rfoot 0 0 0
rtoes -46.0114 0 0
lowerback -3.13993 -0.462893 -2.3111
upperback -1.42423 -0.505967 -7.19545
thorax 0 0 0
lowerneck 0 0 0
upperneck 3.59137 -2.97654 5.60022
head 2.46125 -1.30017 1.56058
lclavicle 0 0 0
lhumerus 0 0 0
lradius 57.5695 -0 0
lwrist 18.9113 0 0
lhand 43.7317 27.2086 0.00867183
lfingers 0 0 0
lthumb 65.3985 33.6418 -0.00374025
rclavicle 0 0 0
rhumerus -41.2646 42.905 -59.2259
rradius 0 0 0
rwrist -6.83773 0 0
rhand 16.2211 -14.473 2.14004
rfingers 0 0 0
rthumb 40.9126 -37.7927 2.40614
929
root 1.91118 15.7725 32.7993 4.79441 2.8172 4.80576
lfemur 0.125439 -5.22212 2.91989
ltibia 0 0 0
lfoot 0 0 0
ltoes 0 0 0
rfemur 0 0 0
rtibia 41.3208 -0 0
rfoot 0 0 0
rtoes -45.8326 0 0
lowerback -3.096 -0.45713 -2.1478
upperback -1.43036 -0.507024 -7.1852
thorax 0 0 0
lowerneck 0 0 0
upperneck 3.4595 -2.80784 5.47942
head 2.40812 -1.22149 1.49368
lclavicle 0 0 0
lhumerus 0 0 0
lradius 57.4629 -0 0
lwrist 19.2596 0 0
lhand 43.5547 27.0653 0.0119533
lfingers 0 0 0
lthumb 65.2566 33.719 -0.00515553
rclavicle 0 0 0
rhumerus -35.511 40.1918 -53.1019
rradius 0 0 0
rwrist -7.38031 0 0
rhand 13.1375 -16.3789 2.96559
rfingers 0 0 0
rthumb 37.9781 -40.0364 3.33526
930
root 1.85723 15.744 32.8083 4.93288 2.46132 4.82034
lfemur 0.53863 -4.84381 2.95254
ltibia 0 0 0
lfoot 0 0 0
ltoes 0 0 0
rfemur 0 0 0
rtibia 41.7877 -0 0
rfoot 0 0 0
rtoes -45.6351 0 0
lowerback -3.04746 -0.450909 -1.96742
upperback -1.43714 -0.508191 -7.17389
thorax 0 0 0
lowerneck 0 0 0
upperneck 3.31344 -2.62182 5.34556
head 2.34933 -1.13464 1.4197
lclavicle 0 0 0
lhumerus 0 0 0
lradius 57.3452 -0 0
lwrist 19.6443 0 0
lhand 43.3591 26.9071 0.0150634
lfingers 0 0 0
lthumb 65.1 33.8041 -0.00649689
rclavicle 0 0 0
rhumerus -29.8782 36.7072 -47.0494
rradius 0 0 0
rwrist -7.97964 0 0
rhand 9.69874 -18.534 3.75635
rfingers 0 0 0
rthumb 34.6938 -42.5691 4.22576
931
root 1.80427 15.715 32.8148 5.08185 2.07802 4.83508
lfemur 0.983599 -4.43667 2.99073
ltibia 0 0 0
lfoot 0 0 0
ltoes 0 0 0
rfemur 0 0 0
rtibia 42.2905 -0 0
rfoot 0 0 0
rtoes -45.4224 0 0
lowerback -2.99516 -0.444381 -1.77316
upperback -1.44443 -0.509446 -7.1617
thorax 0 0 0
lowerneck 0 0 0
upperneck 3.15568 -2.42187 5.20089
head 2.2859 -1.0412 1.33994
lclavicle 0 0 0
lhumerus 0 0 0
lradius 57.2184 -0 0
lwrist 20.0586 0 0
lhand 43.1485 26.7367 0.0178088
lfingers 0 0 0
lthumb 64.9312 33.8959 -0.0076809
rclavicle 0 0 0
rhumerus -24.606 32.4865 -41.3097
rradius 0 0 0
rwrist -8.62506 0 0
rhand 5.9615 -20.9057 4.46125
rfingers 0 0 0
rthumb 31.1123 -45.3522 5.02005
932
root 1.7524 15.6857 32.8191 5.23887 1.67362 4.84954
lfemur 1.45306 -4.0075 3.03444
ltibia 0 0 0
lfoot 0 0 0
ltoes 0 0 0
rfemur 0 0 0
rtibia 42.8209 -0 0
rfoot 0 0 0
rtoes -45.1981 0 0
lowerback -2.93997 -0.437686 -1.56822
upperback -1.45212 -0.510768 -7.14884
thorax 0 0 0
lowerneck 0 0 0
upperneck 2.98873 -2.21137 5.0477
head 2.21885 -0.942721 1.25568
lclavicle 0 0 0
lhumerus 0 0 0
lradius 57.0847 -0 0
lwrist 20.4957 0 0
lhand 42.9263 26.5569 0.0200259
lfingers 0 0 0
lthumb 64.7532 33.9927 -0.0086371
rclavicle 0 0 0
rhumerus -19.8354 27.6152 -36.0238
rradius 0 0 0
rwrist -9.30595 0 0
rhand 1.98715 -23.4544 5.03536
rfingers 0 0 0
rthumb 27.2923 -48.3396 5.66732
933
root 1.7017 15.6563 32.8214 5.40147 1.25444 4.86335
lfemur 1.93974 -3.56308 3.08343
ltibia 0 0 0
lfoot 0 0 0
ltoes 0 0 0
rfemur 0 0 0
rtibia 43.3707 -0 0
rfoot 0 0 0
rtoes -44.9655 0 0
lowerback -2.88274 -0.430956 -1.3558
upperback -1.4601 -0.512137 -7.13551
thorax 0 0 0
lowerneck 0 0 0
upperneck 2.81513 -1.99367 4.8883
head 2.14919 -0.840757 1.16823
lclavicle 0 0 0
lhumerus 0 0 0
lradius 56.946 -0 0
lwrist 20.9487 0 0
lhand 42.696 26.3706 0.0215881
lfingers 0 0 0
lthumb 64.5687 34.093 -0.0093108
rclavicle 0 0 0
rhumerus -15.6228 22.2109 -31.2473
rradius 0 0 0
rwrist -10.0117 0 0
rhand -2.15812 -26.1336 5.44249
rfingers 0 0 0
rthumb 23.2989 -51.4776 6.12655
